<?xml version="1.0" standalone="no"?>
<!DOCTYPE svg PUBLIC "-//W3C//DTD SVG 20010904//EN"
 "http://www.w3.org/TR/2001/REC-SVG-20010904/DTD/svg10.dtd">
<svg version="1.0" xmlns="http://www.w3.org/2000/svg"
 width="400.000000pt" height="400.000000pt" viewBox="0 0 400.000000 400.000000"
 preserveAspectRatio="xMidYMid meet">

<g transform="translate(0.000000,400.000000) scale(0.100000,-0.100000)"
fill="#000000" stroke="none">
<path d="M1523 2697 c-52 -15 -71 -33 -23 -23 161 34 263 24 338 -31 43 -32
62 -72 62 -133 0 -70 -31 -129 -100 -194 -90 -83 -222 -149 -344 -171 -38 -8
-38 -7 -25 16 54 103 186 238 270 277 90 41 79 52 -26 28 -123 -29 -153 -28
-375 4 -168 25 -233 30 -295 25 -232 -18 -398 -115 -479 -278 -20 -41 -36 -82
-36 -93 0 -32 -21 -50 -75 -68 -68 -22 -167 -88 -209 -139 -48 -60 -67 -102
-73 -163 -18 -175 159 -287 402 -255 230 31 403 154 659 469 131 161 163 176
99 45 -27 -56 -47 -114 -55 -159 -11 -66 -10 -74 11 -118 24 -49 52 -69 114
-80 44 -8 52 9 8 19 -44 9 -64 38 -69 100 -6 71 19 171 66 265 l37 74 81 21
c277 72 476 273 424 430 -31 95 -123 146 -263 144 -45 -1 -101 -6 -124 -12z
m-91 -272 c81 0 144 -2 140 -6 -4 -3 -33 -25 -65 -48 -32 -24 -105 -94 -164
-155 l-106 -111 -311 -1 c-171 0 -335 -4 -364 -9 l-53 -8 7 29 c32 137 197
272 369 303 102 19 116 19 260 12 77 -3 206 -6 287 -6z m183 -17 c-58 -43
-158 -144 -212 -215 -30 -40 -61 -73 -69 -73 -20 0 -15 8 80 119 73 86 195
191 221 191 6 -1 -3 -10 -20 -22z m-406 -335 c-36 -47 -161 -187 -238 -267
-212 -219 -371 -306 -537 -293 -99 7 -174 43 -212 100 -35 53 -37 147 -5 220
30 65 115 146 193 186 l65 32 3 -28 c17 -159 125 -264 267 -262 l60 2 -58 7
c-149 19 -222 88 -242 228 -6 45 -4 52 15 62 38 20 141 27 424 29 264 1 278 0
265 -16z"/>
<path d="M3272 2450 c-88 -54 -195 -190 -345 -436 -53 -88 -114 -176 -135
-196 -45 -43 -79 -56 -88 -34 -9 23 11 64 72 153 53 78 53 78 28 81 -14 2 -32
1 -40 -2 -8 -3 -43 -50 -78 -104 -41 -64 -76 -107 -100 -121 -37 -24 -66 -22
-66 2 0 21 44 100 90 162 22 30 40 57 40 60 0 3 -15 5 -34 5 -31 0 -39 -7 -80
-65 -47 -65 -80 -95 -103 -95 -11 0 -10 6 1 29 22 41 30 105 17 129 -23 43
-66 37 -125 -17 -26 -24 -28 -24 -17 -3 11 21 10 22 -26 22 -37 -1 -40 -3
-103 -102 -41 -63 -79 -110 -102 -126 -38 -25 -68 -24 -68 1 0 21 44 100 90
162 22 30 40 57 40 60 0 3 -15 5 -34 5 -37 0 -34 4 -139 -155 -51 -75 -127
-121 -127 -75 0 31 19 68 94 183 61 93 73 107 97 107 15 0 31 5 34 10 3 6 -3
10 -14 10 -28 0 -27 5 19 62 22 28 40 55 40 59 0 5 -13 9 -30 9 -24 0 -39 -12
-81 -62 -37 -45 -61 -65 -83 -69 -27 -6 -28 -7 -10 -13 19 -7 14 -16 -57 -125
-82 -123 -145 -191 -179 -191 -33 0 -24 35 31 124 58 96 63 134 17 150 -21 8
-37 5 -65 -8 -21 -10 -56 -19 -78 -20 -39 -1 -41 -3 -103 -96 -35 -52 -70
-107 -78 -122 l-15 -28 38 0 c37 0 40 3 97 90 60 92 134 170 161 170 24 0 18
-23 -26 -99 -52 -91 -61 -123 -42 -150 10 -15 25 -21 54 -21 32 0 47 7 84 41
l45 42 0 -30 c0 -39 16 -53 62 -53 28 0 47 8 73 31 25 22 35 27 35 16 0 -40
87 -66 118 -35 7 7 12 8 12 4 0 -7 -234 -406 -278 -473 -14 -22 -13 -23 25
-23 l39 0 119 203 c189 320 189 320 203 297 9 -14 23 -20 51 -20 51 0 81 12
122 48 19 16 43 31 54 34 11 3 28 9 37 13 15 6 16 2 11 -27 -11 -71 76 -95
137 -38 38 35 40 36 40 12 0 -48 79 -59 128 -17 28 23 30 23 25 5 -5 -17 0
-20 26 -20 19 0 34 6 37 15 5 12 9 11 23 -7 32 -39 129 -19 182 38 12 13 30
24 38 24 9 0 30 9 47 19 l32 19 -5 -37 c-8 -57 9 -81 57 -81 32 0 48 7 80 36
35 32 40 34 40 16 0 -32 27 -52 70 -52 32 0 46 7 84 44 l45 45 6 -30 c14 -63
105 -82 174 -36 39 26 98 92 120 135 18 34 -2 26 -23 -9 -47 -80 -131 -144
-179 -137 -35 5 -44 48 -24 112 33 103 147 196 147 119 0 -16 -9 -39 -20 -53
-22 -28 -27 -64 -7 -58 19 6 47 69 47 105 0 42 -27 58 -76 44 -55 -15 -96 -52
-158 -145 -57 -85 -113 -133 -141 -122 -8 3 -15 12 -15 19 0 21 44 100 90 162
22 30 40 57 40 60 0 3 -15 5 -34 5 -35 0 -58 -24 -137 -145 -33 -52 -96 -107
-117 -103 -30 6 -19 75 26 168 33 70 50 92 88 120 80 57 255 231 296 295 46
71 48 108 6 113 -15 2 -39 -4 -55 -12 -96 -52 -278 -282 -383 -485 -25 -48
-51 -83 -69 -94 -43 -25 -54 -22 -37 12 36 69 29 142 -14 156 -25 8 -55 -8
-109 -59 l-44 -41 24 41 c13 23 58 68 99 102 100 80 240 226 274 284 37 63 32
92 -14 96 -22 1 -47 -5 -68 -18z m88 -10 c0 -43 -47 -108 -154 -216 -61 -61
-127 -121 -146 -135 l-35 -24 29 50 c98 169 190 289 251 326 39 24 55 24 55
-1z m320 -7 c0 -14 -13 -47 -30 -72 -31 -49 -194 -213 -269 -271 l-43 -34 52
85 c154 246 290 383 290 292z m-1278 -442 c-3 -37 -47 -130 -65 -136 -7 -2
-38 -5 -69 -8 l-56 -4 43 57 c53 69 122 133 138 127 7 -2 11 -18 9 -36z m696
15 c5 -22 -53 -145 -70 -150 -7 -3 -39 -6 -70 -9 l-57 -4 32 44 c42 59 134
146 150 140 6 -2 13 -11 15 -21z m-774 -179 c-9 -24 -64 -58 -87 -55 -33 5
-30 50 3 59 45 13 90 10 84 -4z m687 -6 c-28 -51 -106 -67 -106 -21 0 26 23
37 83 39 29 1 32 -1 23 -18z"/>
<path d="M2115 2080 c-13 -15 -15 -24 -8 -31 19 -19 48 -6 48 20 0 32 -17 36
-40 11z"/>
<path d="M3515 2080 c-13 -15 -15 -24 -8 -31 19 -19 48 -6 48 20 0 32 -17 36
-40 11z"/>
</g>
</svg>
