<svg xmlns="http://www.w3.org/2000/svg" version="1.0" preserveAspectRatio="xMidYMid meet" viewBox="1.93 1.98 447.07 75.18">
<metadata>
Created by potrace 1.10, written by Peter Selinger 2001-2011
</metadata>
<g transform="translate(0.000000,267.000000) scale(0.050000,-0.050000)" fill="#000000" stroke="none">
<path d="M4053 5255 c-19 -69 -15 -151 7 -158 14 -5 120 -649 120 -730 0 -4 -81 -7 -179 -7 l-179 0 -154 131 c-277 236 -415 267 -533 122 -51 -64 -44 -73 62 -73 68 0 133 -18 218 -61 221 -110 211 -119 -143 -119 -293 0 -312 2 -312 38 0 30 -103 252 -130 278 -19 20 -153 -77 -260 -188 l-123 -128 -258 0 -257 0 69 58 c61 51 69 68 67 149 -4 220 -143 180 -270 -78 -88 -178 -204 -195 -226 -33 -27 208 -162 254 -247 85 -94 -187 -36 -321 150 -345 42 -6 41 -11 -37 -101 -138 -161 -230 -203 -422 -189 -177 12 -183 -6 -17 -54 275 -81 469 16 555 278 37 115 137 96 154 -28 37 -280 392 -391 392 -123 0 60 -15 97 -61 149 l-60 69 259 6 c237 6 263 11 307 53 l49 45 108 -50 108 -51 725 0 725 0 0 115 c0 63 -20 248 -44 411 -30 203 -37 301 -23 310 65 42 51 165 -22 195 -39 16 -71 38 -71 49 0 38 -35 19 -47 -25z m-2068 -714 c14 -51 -30 -110 -105 -141 -85 -35 -88 -21 -20 86 62 99 109 119 125 55z m868 -114 c17 -69 -3 -79 -84 -41 -93 45 -109 90 -48 139 54 44 106 5 132 -98z m-1401 58 c22 -15 68 -92 68 -115 0 -27 -127 2 -147 33 -33 53 28 116 79 82z m488 -363 c90 -72 105 -142 30 -142 -110 0 -210 98 -210 205 0 33 106 -4 180 -63z"/>
<path d="M5390 5241 c-30 -59 -29 -60 29 -90 79 -41 91 -39 118 20 30 67 32 63 -36 98 -77 40 -75 41 -111 -28z"/>
<path d="M7262 5165 c-45 -69 -46 -73 -12 -130 24 -42 42 -148 60 -372 41 -504 -13 -466 667 -459 530 6 541 7 588 52 l49 45 108 -50 c59 -28 142 -51 183 -51 l75 0 0 118 c0 103 -72 300 -131 359 -19 20 -193 -106 -243 -176 -124 -172 -282 -195 -372 -52 -67 105 -245 288 -367 376 -134 96 -116 116 203 222 137 45 140 48 146 120 8 89 7 89 -200 8 -305 -119 -438 -323 -300 -460 33 -33 84 -63 113 -66 75 -8 288 -171 333 -254 18 -33 -4 -35 -351 -35 -445 0 -411 -29 -433 370 -28 491 -43 546 -116 435z m1611 -738 c17 -69 -3 -79 -84 -41 -93 45 -109 90 -48 139 54 44 106 5 132 -98z"/>
<path d="M4432 5163 c-33 -62 -33 -84 -3 -370 17 -166 34 -375 36 -463 l5 -160 45 84 c30 56 45 119 45 186 0 122 -56 645 -78 730 l-15 60 -35 -67z"/>
<path d="M5192 5164 c-28 -55 -27 -58 27 -90 76 -45 90 -43 118 17 30 67 32 63 -36 98 -77 40 -75 40 -109 -25z"/>
<path d="M6903 5169 c-30 -67 -32 -63 36 -98 77 -40 75 -41 111 28 30 59 29 60 -29 90 -79 41 -91 39 -118 -20z"/>
<path d="M5461 4921 c-12 -21 -21 -61 -21 -88 0 -37 -22 -62 -87 -100 -118 -69 -237 -204 -229 -259 10 -71 207 -95 304 -38 l71 42 20 -74 c11 -41 38 -103 60 -139 l40 -65 794 0 793 0 -12 215 c-26 445 -225 658 -342 365 -84 -210 -24 -328 161 -316 93 6 97 4 103 -49 l7 -55 -241 0 -240 0 -156 131 c-267 225 -413 264 -521 139 -65 -75 -57 -90 51 -90 98 0 241 -58 344 -140 l50 -39 -385 -1 -386 0 -20 53 c-11 28 -40 163 -64 300 -45 251 -57 278 -94 208z m1548 -220 c43 -47 26 -81 -41 -81 -52 0 -80 40 -61 90 16 41 60 38 102 -9z m-1529 -93 c0 -60 -74 -99 -150 -80 -62 16 -44 52 59 114 68 42 91 34 91 -34z"/>
<path d="M648 4644 c-18 -47 -14 -67 26 -125 199 -291 -82 -641 -494 -613 -203 14 -187 -18 46 -89 440 -134 793 431 515 822 -54 75 -67 76 -93 5z"/>
<path d="M3292 4017 c-20 -33 -33 -63 -29 -66 4 -3 36 -21 71 -39 l65 -32 32 62 c18 34 29 64 25 67 -73 64 -130 66 -164 8z"/>
</g>
</svg>