<?xml version="1.0" encoding="UTF-8"?>
<svg id="Capa_1" data-name="Capa 1" xmlns="http://www.w3.org/2000/svg" viewBox="0 0 600 570.63">
  <path d="M414.59,217.96L485.41,0l-185.41,134.71L114.59,0l70.82,217.96L0,352.67h229.18s70.82,217.96,70.82,217.96l70.82-217.96h229.18s-185.41-134.71-185.41-134.71ZM368.98,254.31c-3.02,2.91-7.22,4.69-12.61,5.34l-90.73,13.12c2.67,9.87,7.49,17.46,14.48,22.74,8.83,6.68,20.03,10,33.6,10,9.04,0,17.39-1.34,25.04-4.04,7.64-2.68,13.83-5.65,18.58-8.89,2.8,1.74,5.11,4.05,6.94,6.95,1.83,2.91,2.75,6.09,2.75,9.53,0,5.39-2.47,10.07-7.43,14.05-4.96,3.98-11.58,7.06-19.86,9.2-8.3,2.16-17.83,3.23-28.59,3.23-16.59,0-31.3-3.06-44.11-9.2-12.82-6.14-22.78-15.35-29.88-27.63-7.11-12.27-10.66-27.46-10.66-45.55,0-13.13,1.99-24.66,5.97-34.56,3.98-9.91,9.48-18.21,16.49-24.89,6.99-6.67,15.07-11.67,24.23-15.03,9.15-3.33,18.9-5.01,29.24-5.01,14,0,26.33,2.92,36.99,8.73,10.66,5.81,19.01,13.79,25.04,23.91,6.02,10.12,9.04,21.64,9.04,34.56,0,6.03-1.51,10.5-4.52,13.41Z"/>
  <path d="M302.42,203.42c-11.2,0-20.52,3.88-27.95,11.63-6.91,7.22-10.7,17.33-11.36,30.34l73.89-10.94c-.66-8.4-3.88-15.67-9.7-21.81-5.81-6.14-14.11-9.22-24.87-9.22Z"/>
</svg>