<?xml version="1.0" standalone="no"?>
<!DOCTYPE svg PUBLIC "-//W3C//DTD SVG 20010904//EN"
 "http://www.w3.org/TR/2001/REC-SVG-20010904/DTD/svg10.dtd">
<svg version="1.0" xmlns="http://www.w3.org/2000/svg"
 width="300.000000pt" height="150.000000pt" viewBox="0 0 300.000000 150.000000"
 preserveAspectRatio="xMidYMid meet">
<metadata>
Created by potrace 1.10, written by Peter Selinger 2001-2011
</metadata>
<g transform="translate(0.000000,150.000000) scale(0.050000,-0.050000)"
fill="#000000" stroke="none">
<path d="M4617 1745 c-27 -70 -115 -498 -116 -567 -1 -54 -223 -178 -317 -178
-45 0 -55 86 -13 121 45 37 61 5 19 -41 -20 -22 -27 -40 -16 -40 32 0 91 76
77 99 -25 40 -71 21 -266 -107 -288 -189 -341 -186 -256 18 16 38 21 74 12 79
-20 13 -55 -29 -57 -69 -1 -16 -8 -67 -15 -112 -22 -136 88 -120 316 44 55 39
101 68 104 64 3 -3 16 -26 29 -51 32 -61 74 -57 232 23 l135 68 -14 -174 c-21
-272 14 -292 40 -23 15 150 31 232 48 237 18 6 19 13 3 23 -32 19 47 465 107
606 10 22 7 35 -7 35 -13 0 -33 -25 -45 -55z"/>
<path d="M2200 1603 c-120 -126 -310 -394 -429 -603 l-73 -130 16 220 c39 534
-39 640 -205 280 -103 -223 -152 -610 -84 -666 20 -16 24 14 19 144 -8 191 31
384 109 544 125 253 160 201 132 -194 -30 -424 -18 -442 127 -195 188 322 473
677 542 677 60 0 -45 -820 -153 -1198 -10 -34 -11 -62 -2 -62 42 0 188 713
213 1032 22 300 -33 339 -212 151z"/>
<path d="M2991 1129 c-48 -36 -338 -149 -383 -149 -26 0 -30 13 -21 60 14 72
-21 81 -39 10 -31 -125 11 -134 237 -47 109 42 166 55 171 40 11 -34 40 -28
107 19 69 49 117 38 117 -27 0 -30 -21 -59 -60 -82 -182 -107 -351 -460 -261
-543 119 -107 322 163 354 471 l13 118 106 40 c59 22 129 46 157 53 l51 12
-31 -73 c-54 -130 7 -150 112 -37 l69 74 -79 -67 c-89 -75 -110 -58 -60 49 19
39 29 76 23 83 -14 13 -223 -46 -299 -86 -52 -27 -57 -25 -78 21 -12 28 -50
59 -83 71 -75 26 -76 26 -123 -10z m150 -411 c-69 -228 -257 -390 -278 -241
-10 72 104 283 211 392 l96 98 6 -55 c4 -30 -12 -118 -35 -194z"/>
</g>
</svg>
