<?xml version="1.0" standalone="no"?>
<!DOCTYPE svg PUBLIC "-//W3C//DTD SVG 20010904//EN"
 "http://www.w3.org/TR/2001/REC-SVG-20010904/DTD/svg10.dtd">
<svg version="1.0" xmlns="http://www.w3.org/2000/svg"
 width="300.000000pt" height="178.000000pt" viewBox="0 0 300.000000 178.000000"
 preserveAspectRatio="xMidYMid meet">
<metadata>
Created by potrace 1.10, written by Peter Selinger 2001-2011
</metadata>
<g transform="translate(0.000000,178.000000) scale(0.100000,-0.100000)"
fill="#000000" stroke="none">
<path d="M583 1267 c-28 -31 -135 -229 -167 -309 -31 -79 -34 -111 -8 -106 11
2 19 16 22 43 6 39 78 194 140 303 23 39 35 50 45 45 8 -5 46 -60 84 -123 38
-63 75 -115 82 -115 8 0 34 37 59 82 25 45 57 94 70 108 39 41 56 33 96 -47
20 -40 48 -97 63 -125 25 -51 51 -70 51 -37 0 16 -95 193 -133 247 -42 61 -96
14 -171 -148 l-32 -70 -45 77 c-24 42 -56 99 -71 127 -36 65 -58 78 -85 48z"/>
<path d="M2118 928 c-3 -39 -6 -43 -30 -46 -36 -4 -38 -32 -3 -32 24 0 25 -3
25 -55 0 -70 21 -115 55 -115 15 0 31 10 41 25 21 32 9 53 -17 29 -15 -14 -21
-14 -34 -4 -27 22 -15 120 16 120 29 0 32 19 5 30 -22 8 -26 16 -26 50 0 28
-4 40 -14 40 -10 0 -16 -14 -18 -42z"/>
<path d="M1285 924 c-69 -42 -70 -42 -63 -49 8 -8 142 58 141 70 -2 18 -18 14
-78 -21z"/>
<path d="M1744 872 c-5 -4 -17 -18 -26 -30 l-16 -24 -11 21 c-16 30 -45 26
-74 -9 l-25 -30 -7 30 c-7 32 -19 45 -34 36 -8 -5 9 -108 24 -148 11 -27 34
-21 40 10 12 57 21 77 37 80 13 2 18 -9 25 -50 11 -68 34 -72 46 -8 10 53 33
83 42 58 4 -9 2 -40 -4 -69 -9 -50 -1 -83 15 -67 10 11 24 81 24 126 0 66 -23
97 -56 74z"/>
<path d="M1901 846 c-28 -30 -12 -44 23 -21 30 20 46 13 46 -20 0 -22 -2 -23
-31 -12 -27 11 -33 10 -49 -10 -10 -13 -16 -32 -13 -43 13 -49 105 -82 117
-42 3 9 8 38 11 63 13 92 -50 143 -104 85z m59 -101 c9 -11 10 -19 3 -26 -14
-14 -53 6 -53 26 0 20 34 19 50 0z"/>
<path d="M132 849 c9 -28 188 -76 188 -50 0 6 -9 11 -19 11 -18 0 -112 28
-155 45 -14 6 -18 5 -14 -6z"/>
<path d="M2319 808 c-30 -33 -31 -47 -7 -96 13 -25 41 -35 84 -30 45 5 42 28
-5 28 -29 0 -43 5 -50 19 -11 20 2 31 39 31 9 0 23 7 30 15 11 13 9 20 -10 40
-31 33 -45 31 -81 -7z m48 -15 c-4 -3 -10 -3 -14 0 -3 4 0 7 7 7 7 0 10 -3 7
-7z"/>
<path d="M554 815 c-26 -17 -48 -69 -40 -90 13 -36 99 -5 127 47 8 15 7 24 -7
39 -20 23 -52 24 -80 4z m66 -29 c0 -17 -47 -56 -67 -56 -15 0 -10 33 9 58 14
17 58 15 58 -2z m-93 -48 c-3 -8 -6 -5 -6 6 -1 11 2 17 5 13 3 -3 4 -12 1 -19z"/>
<path d="M909 801 c-20 -16 -22 -22 -12 -44 19 -40 55 -59 98 -51 33 6 36 9
33 37 -5 54 -79 90 -119 58z m83 -23 c9 -7 19 -24 22 -38 3 -14 3 -19 0 -12
-4 10 -9 10 -19 2 -20 -17 -69 9 -73 38 -3 18 1 22 25 22 16 0 36 -6 45 -12z"/>
<path d="M2534 784 c-13 -19 -15 -32 -8 -52 26 -75 144 -61 144 17 0 39 -28
61 -78 61 -34 0 -45 -5 -58 -26z m100 -26 c13 -21 1 -36 -33 -40 -27 -3 -47
21 -38 46 9 22 56 18 71 -6z"/>
<path d="M1205 770 c-7 -11 128 -59 140 -49 5 6 5 13 -1 19 -13 13 -133 40
-139 30z"/>
<path d="M421 678 c0 -13 13 -43 28 -68 32 -53 97 -96 216 -141 100 -39 179
-37 271 6 110 51 251 215 186 215 -13 0 -22 -12 -31 -39 -16 -56 -102 -131
-182 -161 -113 -43 -225 -24 -365 62 -51 30 -70 58 -89 126 -4 12 -13 22 -21
22 -8 0 -14 -9 -13 -22z"/>
<path d="M275 619 c-38 -21 -74 -40 -80 -42 -20 -8 5 -19 28 -13 28 7 137 77
137 88 0 13 -11 9 -85 -33z"/>
<path d="M620 652 c0 -13 43 -50 70 -60 26 -10 80 9 80 28 0 14 67 -28 74 -47
5 -13 13 -8 42 21 37 38 39 60 4 38 -28 -17 -61 -14 -90 8 -32 25 -37 25 -45
0 -11 -33 -50 -36 -89 -6 -37 27 -46 31 -46 18z m250 -66 c0 -3 -4 -8 -10 -11
-5 -3 -10 -1 -10 4 0 6 5 11 10 11 6 0 10 -2 10 -4z"/>
</g>
</svg>
